<svg xmlns="http://www.w3.org/2000/svg" width="400" height="400" viewBox="0 0 100 100" fill="none">
<style>
</style>
<rect width="100" height="100" fill="#000000"/>
<g id="grid" stroke="rgba(100,255,100,.7)">
<path d="M 50 10 l 40 40 l -40 40 l -40 -40 l 40 -40 Z" stroke="rgba(100,100,255,.7)"/>
<!-- right facing -->
<path d="M 10 50 c 13 6, 16 20, 20 20 c 13 6, 21 18, 20 20 M 0 0 Z"/>
<path d="M 15 45 c 13 6, 16 20, 20 20 c 13 6, 21 18, 20 20 M 0 0 Z"/>
<path d="M 20 40 c 13 6, 16 20, 20 20 c 13 6, 21 18, 20 20 M 0 0 Z"/>
<path d="M 25 35 c 13 6, 16 20, 20 20 c 13 6, 21 18, 20 20 M 0 0 Z"/>
<path d="M 30 30 c 13 6, 16 20, 20 20 c 13 6, 21 18, 20 20 M 0 0 Z"/>
<path d="M 35 25 c 13 6, 16 20, 20 20 c 13 6, 21 18, 20 20 M 0 0 Z"/>
<path d="M 40 20 c 13 6, 16 20, 20 20 c 13 6, 21 18, 20 20 M 0 0 Z"/>
<path d="M 45 15 c 13 6, 16 20, 20 20 c 13 6, 21 18, 20 20 M 0 0 Z"/>
<path d="M 50 10 c 13 6, 16 20, 20 20 c 13 6, 21 18, 20 20 M 0 0 Z"/>
  <!-- left facing -->
<path d="M 90 50 c -13 6,-16 20,-20 20 c -13 6, -21 18, -20 20 M 0 0 Z"/>
<path d="M 85 45 c -13 6,-16 20,-20 20 c -13 6, -21 18, -20 20 M 0 0 Z"/>
<path d="M 80 40 c -13 6,-16 20,-20 20 c -13 6, -21 18, -20 20 M 0 0 Z"/>
<path d="M 75 35 c -13 6,-16 20,-20 20 c -13 6, -21 18, -20 20 M 0 0 Z"/>
<path d="M 70 30 c -13 6,-16 20,-20 20 c -13 6, -21 18, -20 20 M 0 0 Z"/>
<path d="M 65 25 c -13 6,-16 20,-20 20 c -13 6, -21 18, -20 20 M 0 0 Z"/>
<path d="M 60 20 c -13 6,-16 20,-20 20 c -13 6, -21 18, -20 20 M 0 0 Z"/>
<path d="M 55 15 c -13 6,-16 20,-20 20 c -13 6, -21 18, -20 20 M 0 0 Z"/>
<path d="M 50 10 c -13 6,-16 20,-20 20 c -13 6, -21 18, -20 20 M 0 0 Z"/>
</g>
<g id="doh">
  <g id="fills" fill="rgba(255,0,0,0.8)">
    <path id="outline_top" d="M33 80 
    l -4 -4 
    l 1 -20
    l -2 -2
    v -10
    l 2 -2
    v -20
    c 10 -5, 30 -5, 40 0
    v 20
    l 2 2
    v 10
    l -2 2
    l 1 20
    l -4 4
    c -15 3, -20 3, -34 0
    m0 0Z"/>
    <path id="outline_bot" d="M33 80 
    c -5 3,-8 5, -8 10
    c 0 0,0 0, 50 0
    c 0 -3,0 -5, -8 -10
    c -15 3, -20 3, -34 0
    m0 0Z"/>
      <path id="fill_eyes" fill="rgba(50,0,0,1.0)" d="M 30 42
      l 18 -1
      l 0 -4
      c 0 -1, 4 -1, 4 0 
      l 0 4 
      l 18 1
      v -2
      c -2 -10, -38 -10, -40 0
      v 2
      m 0 0Z"/>
  </g>
  <g id="outlines" stroke="rgba(255,0,0,1)">
    <path id="outline_top" d="M33 80 
    l -4 -4 
    l 1 -20
    l -2 -2
    v -10
    l 2 -2
    v -20
    c 10 -5, 30 -5, 40 0
    v 20
    l 2 2
    v 10
    l -2 2
    l 1 20
    l -4 4
    c -15 3, -20 3, -34 0
    m0 0Z"/>
    <path id="outline_bot" d="M33 80 
    c -5 3,-8 5, -8 10
    c 0 0,0 0, 50 0
    c 0 -3,0 -5, -8 -10
    c -15 3, -20 3, -34 0
    m0 0Z"/>
    <path id="cheeks" d="M 30 56 
      c 4 4, 10 3, 11 0
      m 29 0
      c -4 4, -10 3,-11 0
      m 0 0Z"/>
    <path id="eyes" d="M 30 42
      l 18 -1
      l 0 -4
      c 0 -1, 4 -1, 4 0 
      l 0 4 
      l 18 1
      v -2
      c -2 -10, -38 -10, -40 0
      v 2
      m 0 0Z" stroke="rgba(255,0,0,1)"/>
    <path id="nose_upper" d="M 48 37
      c 2 4,-6 15,-2 12
      m 6 -12
      c -3 4,6 15,2 12
      m 0 0Z" stroke="rgba(255,0,0,1)"/>
    <path id="nose_lower" d="M 45 53
      c 0 0,0 0,10 0
      c 4 -1,0 -4,0 -4
      c 0 0,0 0,-10 0
      c 0 0,-4 3,0 4
      m 0 0Z" fill="rgba(50,0,0,1.0)" stroke="rgba(255,0,0,1)"/>
    <path id="mouth" d="M 43 57
      c 1 -1,13 -1,14 0
      m 0 0Z" stroke="rgba(255,0,0,1)"/>
  </g>
  <g id="inner_spaces"  stroke="rgba(255,0,0,1)" stroke-width="0.25">
  </g>

</g>
</svg>